<mxfile host="65bd71144e">
    <diagram id="d1onOI0jFkcU-A59MVnD" name="Page-1">
        <mxGraphModel dx="912" dy="722" grid="0" gridSize="10" guides="1" tooltips="1" connect="1" arrows="1" fold="1" page="0" pageScale="1" pageWidth="827" pageHeight="1169" background="#FFFFFF" math="0" shadow="0">
            <root>
                <mxCell id="0"/>
                <mxCell id="1" parent="0"/>
                <mxCell id="90" value="" style="rounded=0;shadow=0;glass=0;labelBackgroundColor=none;labelBorderColor=none;sketch=0;fontColor=none;strokeColor=#000000;fillColor=none;noLabel=1;" parent="1" vertex="1">
                    <mxGeometry x="9" y="41" width="927" height="766" as="geometry"/>
                </mxCell>
                <mxCell id="62" style="edgeStyle=none;html=1;exitX=0;exitY=1;exitDx=0;exitDy=0;entryX=0.5;entryY=0;entryDx=0;entryDy=0;fontColor=#FFFFFF;strokeColor=#000000;" parent="1" source="61" target="84" edge="1">
                    <mxGeometry relative="1" as="geometry">
                        <mxPoint x="150" y="449" as="targetPoint"/>
                    </mxGeometry>
                </mxCell>
                <mxCell id="82" style="edgeStyle=none;html=1;exitX=0.75;exitY=1;exitDx=0;exitDy=0;entryX=0.25;entryY=0;entryDx=0;entryDy=0;fontColor=#00FF00;strokeColor=#000000;" parent="1" source="61" target="73" edge="1">
                    <mxGeometry relative="1" as="geometry"/>
                </mxCell>
                <mxCell id="83" style="edgeStyle=none;html=1;exitX=0.5;exitY=1;exitDx=0;exitDy=0;entryX=0.5;entryY=0;entryDx=0;entryDy=0;fontColor=#00FF00;strokeColor=#000000;" parent="1" source="61" target="65" edge="1">
                    <mxGeometry relative="1" as="geometry"/>
                </mxCell>
                <mxCell id="61" value="&lt;font color=&quot;#ffffff&quot; style=&quot;font-size: 26px&quot;&gt;Задача&lt;/font&gt;" style="rounded=1;whiteSpace=wrap;html=1;fontColor=#ffffff;strokeColor=#006EAF;fillColor=#1ba1e2;" parent="1" vertex="1">
                    <mxGeometry x="255" y="72" width="400" height="60" as="geometry"/>
                </mxCell>
                <mxCell id="65" value="services.py&#10;взаимодействие&#10;с пользователем, api Telegram" style="swimlane;fontColor=#FF3399;strokeColor=#000000;startSize=50;labelBackgroundColor=none;labelBorderColor=none;swimlaneFillColor=none;perimeterSpacing=1;swimlaneLine=1;glass=0;rounded=0;shadow=0;sketch=0;fillColor=#FFE6CC;" parent="1" vertex="1">
                    <mxGeometry x="318" y="168" width="274" height="408.5" as="geometry"/>
                </mxCell>
                <mxCell id="70" value="&lt;div style=&quot;line-height: 19px&quot;&gt;&lt;font style=&quot;font-size: 12px&quot;&gt;&lt;font color=&quot;#000000&quot; style=&quot;font-size: 12px&quot;&gt;- Init(&lt;/font&gt;&lt;span style=&quot;color: rgb(34 , 119 , 255) ; font-style: italic&quot;&gt;bot&lt;/span&gt;&lt;font color=&quot;#6688cc&quot; style=&quot;font-size: 12px&quot;&gt; : &lt;/font&gt;&lt;font color=&quot;#000000&quot; style=&quot;font-size: 12px&quot;&gt;list)&lt;/font&gt;&lt;/font&gt;&lt;/div&gt;&lt;div style=&quot;line-height: 19px&quot;&gt;&lt;font color=&quot;#000000&quot; style=&quot;font-size: 12px&quot;&gt;инициализация сервиса Telegram bot&lt;/font&gt;&lt;/div&gt;" style="whiteSpace=wrap;html=1;fontColor=#000033;strokeColor=#000000;fillColor=#FFFFCC;" parent="65" vertex="1">
                    <mxGeometry x="10" y="60" width="252" height="60" as="geometry"/>
                </mxCell>
                <mxCell id="77" value="&lt;font&gt;- start(...)&lt;br&gt;начало новой игры&lt;br&gt;&lt;/font&gt;" style="whiteSpace=wrap;html=1;fontColor=#000033;strokeColor=#000000;fillColor=#FFFFCC;" parent="65" vertex="1">
                    <mxGeometry x="10" y="130" width="253" height="60" as="geometry"/>
                </mxCell>
                <mxCell id="78" value="&lt;font&gt;- move(...)&lt;br&gt;ход пользователя&lt;br&gt;&lt;/font&gt;" style="whiteSpace=wrap;html=1;fontColor=#000033;strokeColor=#000000;fillColor=#FFFFCC;" parent="65" vertex="1">
                    <mxGeometry x="10" y="200" width="255" height="60" as="geometry"/>
                </mxCell>
                <mxCell id="94" value="&lt;font&gt;- draw(...)&lt;br&gt;отрисовка игрового поля&lt;br&gt;&lt;/font&gt;" style="whiteSpace=wrap;html=1;fontColor=#000033;strokeColor=#000000;fillColor=#FFFFCC;" parent="65" vertex="1">
                    <mxGeometry x="10" y="270" width="255" height="60" as="geometry"/>
                </mxCell>
                <mxCell id="100" value="&lt;font&gt;- help(...)&lt;br&gt;выдача справки по функционалу, командам игры&lt;br&gt;&lt;/font&gt;" style="whiteSpace=wrap;html=1;fontColor=#000033;strokeColor=#000000;fillColor=#FFFFCC;" vertex="1" parent="65">
                    <mxGeometry x="9.5" y="337.5" width="255" height="60" as="geometry"/>
                </mxCell>
                <mxCell id="73" value="Model.py&#10;Логика игрового процесса" style="swimlane;fontColor=#FF3399;strokeColor=#000000;startSize=50;perimeterSpacing=1;fillColor=#FFE6CC;" parent="1" vertex="1">
                    <mxGeometry x="606" y="168" width="320" height="620" as="geometry"/>
                </mxCell>
                <mxCell id="74" value="&lt;font&gt;-&amp;nbsp;computer_move(user_id)&lt;br&gt;вычисление хода компьютера&lt;br&gt;&lt;/font&gt;" style="whiteSpace=wrap;html=1;fontColor=#000033;strokeColor=#000000;fillColor=#FFFFCC;" parent="73" vertex="1">
                    <mxGeometry x="10" y="135" width="300" height="60" as="geometry"/>
                </mxCell>
                <mxCell id="79" value="&lt;font&gt;-&amp;nbsp;get_board(user_id)&lt;br&gt;построение актуального игрового поля для игрока user_id&lt;br&gt;&lt;/font&gt;" style="whiteSpace=wrap;html=1;fontColor=#000033;strokeColor=#000000;fillColor=#FFFFCC;" parent="73" vertex="1">
                    <mxGeometry x="10" y="203" width="300" height="60" as="geometry"/>
                </mxCell>
                <mxCell id="80" value="&lt;font&gt;-&amp;nbsp;check_win(user_id)&lt;br&gt;проверка выигрышной ситуации&lt;br&gt;&lt;/font&gt;" style="whiteSpace=wrap;html=1;fontColor=#000033;strokeColor=#000000;fillColor=#FFFFCC;" parent="73" vertex="1">
                    <mxGeometry x="10" y="270" width="300" height="60" as="geometry"/>
                </mxCell>
                <mxCell id="95" value="&lt;font&gt;- newgame(user_id)&lt;br&gt;подготовка новой игры с игроком user_id, выделение, инициализация ресурсов&lt;br&gt;&lt;/font&gt;" style="whiteSpace=wrap;html=1;fontColor=#000033;strokeColor=#000000;fillColor=#FFFFCC;" parent="73" vertex="1">
                    <mxGeometry x="10" y="62" width="300" height="60" as="geometry"/>
                </mxCell>
                <mxCell id="101" value="&lt;font&gt;-&amp;nbsp;check_nomovs(user_id)&lt;br&gt;проверка на отсутствие ходов&lt;br&gt;&lt;/font&gt;" style="whiteSpace=wrap;html=1;fontColor=#000033;strokeColor=#000000;fillColor=#FFFFCC;" vertex="1" parent="73">
                    <mxGeometry x="10" y="339" width="300" height="60" as="geometry"/>
                </mxCell>
                <mxCell id="102" value="&lt;font&gt;- check_human(user_id)&lt;br&gt;проверка на наличие активной игры с игроком user_id&lt;br&gt;&lt;/font&gt;" style="whiteSpace=wrap;html=1;fontColor=#000033;strokeColor=#000000;fillColor=#FFFFCC;" vertex="1" parent="73">
                    <mxGeometry x="12" y="410" width="300" height="60" as="geometry"/>
                </mxCell>
                <mxCell id="103" value="&lt;font&gt;- human_move(user_id, inp)&lt;br&gt;фиксация хода игрока user_id&lt;br&gt;&lt;/font&gt;" style="whiteSpace=wrap;html=1;fontColor=#000033;strokeColor=#000000;fillColor=#FFFFCC;" vertex="1" parent="73">
                    <mxGeometry x="12" y="481" width="300" height="60" as="geometry"/>
                </mxCell>
                <mxCell id="104" value="&lt;font&gt;-&amp;nbsp;delete_game(user_id)&lt;br&gt;удаление ресурсов по окончанию игры&lt;br&gt;&lt;/font&gt;" style="whiteSpace=wrap;html=1;fontColor=#000033;strokeColor=#000000;fillColor=#FFFFCC;" vertex="1" parent="73">
                    <mxGeometry x="10" y="552" width="300" height="60" as="geometry"/>
                </mxCell>
                <mxCell id="84" value="Controller.py&#10;общая интеграция модулей" style="swimlane;fontColor=#FF3399;strokeColor=#000000;startSize=50;perimeterSpacing=1;labelBackgroundColor=none;fillColor=#FFE6CC;" parent="1" vertex="1">
                    <mxGeometry x="28" y="168" width="271" height="408" as="geometry"/>
                </mxCell>
                <mxCell id="85" value="&lt;font&gt;- Start()&lt;br&gt;подготовка, инициализация&lt;br&gt;&lt;/font&gt;" style="whiteSpace=wrap;html=1;fontColor=#000033;strokeColor=#000000;labelBackgroundColor=none;fillColor=#FFFFCC;" parent="84" vertex="1">
                    <mxGeometry x="10" y="60" width="252" height="60" as="geometry"/>
                </mxCell>
                <mxCell id="96" value="&lt;font&gt;- newgame(user_id)&lt;br&gt;инициализация новой игры с игроком user_id&lt;br&gt;&lt;/font&gt;" style="whiteSpace=wrap;html=1;fontColor=#000033;strokeColor=#000000;labelBackgroundColor=none;fillColor=#FFFFCC;" vertex="1" parent="84">
                    <mxGeometry x="10" y="134" width="252" height="60" as="geometry"/>
                </mxCell>
                <mxCell id="97" value="&lt;font&gt;- move(user_id, user_input: list)&lt;br&gt;обработка хода игрока user_id&lt;br&gt;&amp;nbsp;и ответа компьютера&lt;br&gt;&lt;/font&gt;" style="whiteSpace=wrap;html=1;fontColor=#000033;strokeColor=#000000;labelBackgroundColor=none;fillColor=#FFFFCC;" vertex="1" parent="84">
                    <mxGeometry x="13" y="203" width="252" height="60" as="geometry"/>
                </mxCell>
                <mxCell id="98" value="&lt;font&gt;-&amp;nbsp;&amp;nbsp;_check_position(user_id: int, human: bool)&lt;br&gt;проверка игровых ситуаций (выигрыш, ничья)&lt;br&gt;&lt;/font&gt;" style="whiteSpace=wrap;html=1;fontColor=#000033;strokeColor=#000000;labelBackgroundColor=none;fillColor=#FFFFCC;" vertex="1" parent="84">
                    <mxGeometry x="13" y="272" width="252" height="60" as="geometry"/>
                </mxCell>
                <mxCell id="99" value="&lt;font&gt;-&amp;nbsp;get_board(user_id)&lt;br&gt;получение игровой доски&lt;br&gt;&lt;/font&gt;" style="whiteSpace=wrap;html=1;fontColor=#000033;strokeColor=#000000;labelBackgroundColor=none;fillColor=#FFFFCC;" vertex="1" parent="84">
                    <mxGeometry x="13" y="339" width="252" height="60" as="geometry"/>
                </mxCell>
                <mxCell id="106" value="" style="rounded=0;whiteSpace=wrap;html=1;fillColor=none;" vertex="1" parent="1">
                    <mxGeometry x="32" y="595" width="553" height="186" as="geometry"/>
                </mxCell>
                <mxCell id="107" value="&lt;font color=&quot;#0000cc&quot; style=&quot;font-size: 16px&quot;&gt;&lt;b&gt;Модель взаимодействия модулей&lt;/b&gt;&lt;/font&gt;" style="text;html=1;strokeColor=none;fillColor=none;align=center;verticalAlign=middle;whiteSpace=wrap;rounded=0;" vertex="1" parent="1">
                    <mxGeometry x="93" y="605" width="442" height="30" as="geometry"/>
                </mxCell>
                <mxCell id="116" style="edgeStyle=none;html=1;exitX=1;exitY=0.75;exitDx=0;exitDy=0;entryX=0;entryY=0.75;entryDx=0;entryDy=0;fontSize=16;fontColor=#0000CC;strokeColor=#006600;" edge="1" parent="1" source="109" target="111">
                    <mxGeometry relative="1" as="geometry"/>
                </mxCell>
                <mxCell id="109" value="services.py" style="rounded=0;whiteSpace=wrap;html=1;fontSize=16;fontColor=#0000CC;fillColor=none;strokeColor=#009900;" vertex="1" parent="1">
                    <mxGeometry x="77" y="676" width="120" height="60" as="geometry"/>
                </mxCell>
                <mxCell id="113" style="edgeStyle=none;html=1;exitX=1;exitY=0.25;exitDx=0;exitDy=0;entryX=0;entryY=0.374;entryDx=0;entryDy=0;entryPerimeter=0;fontSize=16;fontColor=#0000CC;strokeColor=#006600;" edge="1" parent="1" source="111" target="112">
                    <mxGeometry relative="1" as="geometry"/>
                </mxCell>
                <mxCell id="115" style="edgeStyle=none;html=1;exitX=0;exitY=0.25;exitDx=0;exitDy=0;entryX=1;entryY=0.25;entryDx=0;entryDy=0;fontSize=16;fontColor=#0000CC;strokeColor=#006600;" edge="1" parent="1" source="111" target="109">
                    <mxGeometry relative="1" as="geometry"/>
                </mxCell>
                <mxCell id="111" value="controller.py" style="rounded=0;whiteSpace=wrap;html=1;fontSize=16;fontColor=#0000CC;fillColor=none;strokeColor=#009900;" vertex="1" parent="1">
                    <mxGeometry x="242" y="648" width="120" height="60" as="geometry"/>
                </mxCell>
                <mxCell id="114" style="edgeStyle=none;html=1;exitX=0;exitY=0.75;exitDx=0;exitDy=0;entryX=1.017;entryY=0.632;entryDx=0;entryDy=0;entryPerimeter=0;fontSize=16;fontColor=#0000CC;strokeColor=#006600;" edge="1" parent="1" source="112" target="111">
                    <mxGeometry relative="1" as="geometry"/>
                </mxCell>
                <mxCell id="112" value="model.py" style="rounded=0;whiteSpace=wrap;html=1;fontSize=16;fontColor=#0000CC;fillColor=none;strokeColor=#009900;" vertex="1" parent="1">
                    <mxGeometry x="412" y="669" width="120" height="60" as="geometry"/>
                </mxCell>
            </root>
        </mxGraphModel>
    </diagram>
</mxfile>